<?xml version="1.0" standalone="no"?>
<!DOCTYPE svg PUBLIC "-//W3C//DTD SVG 20010904//EN"
 "http://www.w3.org/TR/2001/REC-SVG-20010904/DTD/svg10.dtd">
<svg version="1.0" xmlns="http://www.w3.org/2000/svg"
 width="700.000000pt" height="700.000000pt" viewBox="0 0 700.000000 700.000000"
 preserveAspectRatio="xMidYMid meet">
<metadata>
Created by potrace 1.14, written by Peter Selinger 2001-2017
</metadata>
<g transform="translate(0.000000,700.000000) scale(0.100000,-0.100000)"
fill="#000000" stroke="none">
<path d="M3278 6995 c-1 -1 -42 -5 -89 -9 -47 -4 -96 -9 -109 -11 -12 -2 -48
-7 -79 -11 -57 -6 -76 -9 -121 -19 -34 -7 -69 -14 -105 -21 -217 -39 -559
-157 -810 -280 -431 -211 -778 -479 -1129 -874 -145 -163 -322 -428 -443 -661
-124 -238 -253 -580 -289 -762 -2 -10 -6 -27 -9 -37 -3 -10 -8 -29 -10 -42 -3
-13 -11 -57 -20 -98 -22 -115 -30 -160 -41 -255 -26 -230 -26 -667 1 -826 2
-13 6 -46 9 -74 9 -78 23 -156 51 -285 62 -286 208 -671 351 -920 20 -36 45
-81 56 -100 48 -84 194 -294 279 -399 148 -185 307 -345 519 -525 14 -11 61
-48 105 -81 44 -33 82 -63 83 -67 2 -5 8 -8 13 -8 6 0 40 -21 76 -46 82 -57
288 -175 413 -236 311 -151 692 -268 1029 -314 25 -3 57 -8 71 -10 162 -25
683 -25 841 1 13 2 47 7 74 10 72 10 86 12 120 19 17 3 44 8 60 11 121 23 317
75 455 122 179 60 536 223 621 284 15 10 30 19 34 19 17 0 303 199 406 282
153 124 357 320 454 438 21 25 41 47 45 50 4 3 50 63 103 133 222 295 403 636
518 977 51 152 55 164 74 240 16 63 19 74 30 123 14 60 55 299 60 352 4 33 9
71 11 85 9 47 11 525 4 605 -15 157 -21 210 -25 225 -2 8 -7 35 -10 60 -15
117 -78 375 -125 520 -197 596 -539 1119 -1001 1529 -132 118 -142 126 -241
199 -421 312 -880 516 -1397 623 -53 11 -112 22 -131 24 -19 3 -46 7 -60 10
-13 2 -52 7 -86 11 -33 3 -74 8 -90 10 -32 5 -540 14 -546 9z"/>
</g>
</svg>
